<?xml version="1.0" encoding="UTF-8"?>
<svg xmlns="http://www.w3.org/2000/svg" fill="none" viewBox="0 0 170 39" height="39" width="170">
  <path fill="#A615AC" d="M12.7603 23.8305C13.4833 23.8364 14.1996 23.696 14.8633 23.4183C15.4976 23.1512 16.0725 22.7677 16.5564 22.289C17.0467 21.799 17.4241 21.214 17.6638 20.5724C18.1777 19.1658 18.1777 17.631 17.6638 16.2243C17.4237 15.5829 17.0464 14.998 16.5564 14.5078C16.0722 14.0292 15.4973 13.6454 14.8633 13.3773C14.1935 13.1058 13.4746 12.966 12.7485 12.966C12.0224 12.966 11.3035 13.1058 10.6337 13.3773C10.0065 13.6481 9.43777 14.0313 8.9575 14.5067C8.46721 14.9968 8.08947 15.5818 7.84905 16.2232C7.33689 17.6302 7.33689 19.1644 7.84905 20.5714C8.08913 21.213 8.46692 21.798 8.9575 22.2879C9.43629 22.7635 10.004 23.1467 10.6303 23.4173C11.3006 23.6993 12.0252 23.8398 12.7558 23.8294M0.000641864 18.3967C-0.0167076 16.7836 0.32234 15.1855 0.995075 13.7097C1.63966 12.3021 2.57066 11.0349 3.73239 9.98368C4.91068 8.92103 6.28399 8.08147 7.78132 7.50841C10.9768 6.3097 14.5191 6.3097 17.7146 7.50841C19.2205 8.07797 20.6018 8.91776 21.7861 9.98368C22.9469 11.0356 23.8778 12.3027 24.5234 13.7097C25.1954 15.1857 25.5345 16.7837 25.5178 18.3967C25.5346 20.0106 25.1956 21.6093 24.5234 23.086C23.877 24.4919 22.9462 25.7581 21.7861 26.8098C20.6015 27.8753 19.2202 28.715 17.7146 29.2851C14.5188 30.482 10.9771 30.482 7.78132 29.2851C6.28427 28.7115 4.91105 27.872 3.73239 26.8098C2.57145 25.7588 1.64055 24.4924 0.995075 23.086C0.322225 21.6094 -0.0168209 20.0106 0.000641864 18.3967Z"></path>
  <path fill="#A615AC" d="M49.0373 27.6462C48.7046 27.8517 48.2674 28.1003 47.7256 28.3918C47.0948 28.7216 46.4367 28.9999 45.7582 29.2239C44.8936 29.5107 44.009 29.7376 43.1112 29.9028C42.0227 30.1009 40.917 30.1965 39.8095 30.1882C38.2022 30.1919 36.6052 29.94 35.0822 29.4425C33.6076 28.9737 32.2461 28.221 31.0795 27.2296C29.8995 26.2073 28.9586 24.9526 28.3196 23.5495C27.5959 21.9245 27.2428 20.1672 27.2846 18.3978C27.2537 16.6747 27.5999 14.9648 28.3005 13.3806C28.9318 11.9668 29.8736 10.7031 31.0603 9.67754C32.2511 8.66784 33.6342 7.89345 35.1318 7.39798C36.7251 6.8663 38.3998 6.59977 40.0849 6.6097C41.6068 6.60022 43.1224 6.79973 44.5865 7.20227C45.7551 7.47468 46.8354 8.02435 47.7301 8.8018C48.0455 9.10461 48.3119 9.45182 48.5203 9.8317C48.7248 10.2335 48.8258 10.6773 48.8149 11.1251C48.8203 11.5909 48.7278 12.053 48.5428 12.483C48.371 12.8763 48.143 13.2443 47.8656 13.5763C47.6108 13.8825 47.3311 14.1684 47.0291 14.4313C46.7999 14.6372 46.55 14.8203 46.283 14.9779C45.6185 14.3722 44.8559 13.8762 44.0255 13.5096C42.9472 13.0343 41.7715 12.8022 40.5872 12.8307C39.8262 12.8267 39.0699 12.9449 38.3489 13.1805C37.6621 13.4022 37.0304 13.7601 36.4943 14.2312C35.9498 14.7216 35.5183 15.3177 35.2278 15.9805C34.9001 16.7443 34.7391 17.5654 34.7548 18.3924C34.7318 19.2401 34.8929 20.083 35.2278 20.8665C35.5142 21.5136 35.947 22.0901 36.4943 22.5535C37.0412 23.0018 37.6814 23.3307 38.3714 23.5178C39.1215 23.7259 39.8984 23.8294 40.6787 23.8251C41.324 23.8297 41.9678 23.7629 42.5976 23.6261C43.1289 23.5124 43.6505 23.3592 44.1576 23.168C44.5438 23.0215 44.9208 22.8528 45.2863 22.6629C45.4971 22.5623 45.6945 22.4375 45.8744 22.2911L49.0373 27.6462Z"></path>
  <path fill="#A615AC" d="M50.8268 3.76793C50.7795 3.31486 50.8498 2.85752 51.0314 2.43747C51.213 2.01741 51.5 1.64794 51.8664 1.36263C52.6902 0.860086 53.6539 0.615397 54.6263 0.661819C55.3759 0.653429 56.1228 0.749156 56.8443 0.946081C57.5069 1.13632 57.9291 1.25986 58.1097 1.32V7.23484H63.3122C64.3449 7.13896 65.3773 7.41965 66.2076 8.02202C66.5121 8.33747 66.7457 8.71074 66.8936 9.1182C67.0415 9.52565 67.1004 9.95841 67.0666 10.3891C67.0731 11.1124 66.951 11.8314 66.7054 12.5145C66.5557 12.9572 66.3747 13.3893 66.1635 13.8079H58.1097V20.7165C58.0844 21.2689 58.193 21.8193 58.4269 22.3237C58.6151 22.6915 58.8849 23.0144 59.217 23.2694C59.5356 23.5046 59.9075 23.6628 60.3018 23.7308C60.7113 23.8046 61.1269 23.8412 61.5434 23.8401C62.3293 23.8494 63.1107 23.7227 63.8507 23.4662C64.3657 23.2953 64.8653 23.0832 65.344 22.8321L68.1931 27.6252C67.827 27.921 67.4333 28.183 67.0169 28.408C66.4241 28.7344 65.8037 29.0113 65.1623 29.2356C64.3659 29.5165 63.5495 29.7412 62.7196 29.908C61.7827 30.1003 60.8272 30.1952 59.8695 30.1912C57.4466 30.3307 55.0624 29.5534 53.2198 28.0232C52.416 27.2767 51.7864 26.3724 51.3731 25.371C50.9598 24.3695 50.7724 23.294 50.8234 22.2166L50.8268 3.76793Z"></path>
  <path fill="#A615AC" d="M81.2404 23.8372C81.9634 23.8432 82.6797 23.7028 83.3434 23.4251C83.9777 23.1579 84.5526 22.7744 85.0365 22.2957C85.5268 21.8058 85.9042 21.2207 86.1439 20.5792C86.6578 19.1725 86.6578 17.6377 86.1439 16.231C85.9039 15.5896 85.5265 15.0047 85.0365 14.5145C84.5523 14.0359 83.9774 13.6521 83.3434 13.384C82.6736 13.1125 81.9547 12.9727 81.2286 12.9727C80.5025 12.9727 79.7836 13.1125 79.1138 13.384C78.4877 13.6555 77.9201 14.0391 77.441 14.5145C76.9506 15.0043 76.5732 15.5894 76.3337 16.231C75.8197 17.6377 75.8197 19.1725 76.3337 20.5792C76.5729 21.2209 76.9504 21.806 77.441 22.2957C77.9198 22.7713 78.4874 23.1545 79.1138 23.4251C79.7841 23.7071 80.5086 23.8476 81.2393 23.8372M68.4852 18.4013C68.4679 16.7881 68.8069 15.19 69.4797 13.7142C70.1227 12.3084 71.0513 11.0423 72.2102 9.99149C73.3885 8.92886 74.7618 8.08931 76.2591 7.51622C79.4546 6.31751 82.9969 6.31751 86.1924 7.51622C87.6981 8.08611 89.0794 8.92587 90.2639 9.99149C91.4247 11.0434 92.3556 12.3105 93.0012 13.7175C93.6728 15.1925 94.0118 16.7893 93.9956 18.4013C94.0124 20.0151 93.6734 21.6138 93.0012 23.0905C92.3548 24.4965 91.424 25.7627 90.2639 26.8143C89.079 27.8795 87.6979 28.7192 86.1924 29.2896C82.9966 30.4865 79.4549 30.4865 76.2591 29.2896C74.7625 28.7177 73.3893 27.88 72.2102 26.8198C71.0493 25.7688 70.1184 24.5024 69.4729 23.096C68.8016 21.6173 68.4648 20.0165 68.4852 18.4013Z"></path>
  <path fill="#A615AC" d="M108.201 23.7429C108.899 23.7623 109.592 23.6375 110.235 23.377C110.879 23.1165 111.458 22.7261 111.933 22.232C112.931 21.1769 113.459 19.7827 113.401 18.3529C113.433 17.6545 113.32 16.9569 113.068 16.3019C112.816 15.6468 112.43 15.0477 111.933 14.5405C111.448 14.0633 110.865 13.6885 110.223 13.4396C109.581 13.1907 108.893 13.073 108.201 13.094C107.514 13.0717 106.829 13.1845 106.187 13.4258C105.546 13.6671 104.961 14.0318 104.47 14.4978C103.966 15.0087 103.575 15.6144 103.323 16.2773C103.071 16.9402 102.961 17.6463 103.002 18.3518C102.996 19.0771 103.126 19.7974 103.387 20.4772C103.627 21.1113 103.996 21.6923 104.472 22.186C104.939 22.6684 105.5 23.0557 106.123 23.3253C106.778 23.6078 107.488 23.7499 108.205 23.7418M95.8074 38.3343V19.4057C95.7788 17.7659 95.9762 16.1297 96.3944 14.5405C96.7249 13.2959 97.293 12.1222 98.0695 11.0801C99.2117 9.6224 100.724 8.47524 102.458 7.7499C104.328 6.97212 106.347 6.58398 108.382 6.61066C110.074 6.5954 111.754 6.88533 113.336 7.46564C114.806 8.00124 116.153 8.81227 117.299 9.85235C118.434 10.9025 119.328 12.172 119.924 13.5784C120.57 15.1074 120.893 16.7466 120.873 18.3988C120.898 20.0454 120.599 21.6814 119.99 23.2192C119.445 24.5847 118.631 25.8346 117.594 26.8993C116.591 27.9175 115.382 28.7235 114.042 29.2664C112.667 29.8238 111.19 30.1067 109.699 30.0984C108.263 30.1467 106.834 29.8853 105.515 29.3331C104.611 28.9487 103.778 28.4231 103.05 27.7773V38.3376L95.8074 38.3343Z"></path>
  <path fill="#A615AC" d="M130.029 19.1459C130.029 22.1846 131.446 23.7033 134.281 23.7018C137.115 23.7003 138.533 22.1817 138.534 19.1459V10.3382C138.486 9.88498 138.556 9.42738 138.738 9.00722C138.92 8.58705 139.207 8.21769 139.575 7.9329C140.398 7.43057 141.361 7.18589 142.333 7.23208C143.083 7.22426 143.83 7.31998 144.551 7.51634C145.213 7.70877 145.635 7.83122 145.817 7.89026V20.4634C145.852 21.9332 145.551 23.3924 144.935 24.7361C144.378 25.9097 143.55 26.9438 142.515 27.7591C141.429 28.5926 140.184 29.2104 138.851 29.5773C135.862 30.3951 132.697 30.3951 129.708 29.5773C128.375 29.2116 127.129 28.5936 126.044 27.7591C125.009 26.9442 124.181 25.91 123.624 24.7361C123.007 23.3927 122.705 21.9333 122.741 20.4634V10.3382C122.693 9.88498 122.764 9.42738 122.945 9.00722C123.127 8.58705 123.415 8.21769 123.782 7.9329C124.606 7.43096 125.569 7.18631 126.541 7.23208C127.29 7.22419 128.037 7.3199 128.759 7.51634C129.42 7.70877 129.843 7.83122 130.025 7.89026L130.029 19.1459Z"></path>
  <path fill="#A615AC" d="M149.682 22.7412C150.06 22.99 150.461 23.2023 150.882 23.3753C151.527 23.6556 152.192 23.8902 152.872 24.0773C153.734 24.3168 154.61 24.507 155.495 24.6469C156.52 24.81 157.556 24.8901 158.595 24.8863C159.542 24.9238 160.489 24.8131 161.4 24.5583C161.67 24.4972 161.912 24.349 162.084 24.1379C162.256 23.9268 162.35 23.6653 162.349 23.3961C162.367 23.1403 162.3 22.8855 162.158 22.6692C162.016 22.4528 161.806 22.2861 161.559 22.1935C160.764 21.9134 159.936 21.7298 159.094 21.6468L156.741 21.3844C155.597 21.2442 154.463 21.0313 153.347 20.747C152.325 20.4982 151.354 20.0838 150.475 19.5214C149.656 18.993 148.981 18.2803 148.508 17.4441C147.991 16.4547 147.742 15.3543 147.784 14.2462C147.774 13.2162 147.982 12.1951 148.395 11.2461C148.821 10.3036 149.48 9.47734 150.314 8.8408C151.31 8.09536 152.447 7.54502 153.661 7.22051C155.237 6.79759 156.867 6.59799 158.502 6.62793C160.145 6.60907 161.787 6.72612 163.41 6.97779C164.643 7.16838 165.84 7.53691 166.96 8.07111C167.492 8.33163 167.963 8.69694 168.341 9.14365C168.695 9.58805 168.88 10.138 168.862 10.6994C168.87 11.1298 168.77 11.5556 168.571 11.9404C168.242 12.562 167.761 13.0959 167.169 13.495C167.03 13.5899 166.887 13.6778 166.739 13.7585C166.506 13.5756 166.256 13.4138 165.993 13.2753C165.476 12.9952 164.93 12.768 164.364 12.5974C163.564 12.3479 162.749 12.1499 161.922 12.0049C160.855 11.8204 159.772 11.7325 158.687 11.7425C157.72 11.6698 156.748 11.8278 155.859 12.2027C155.626 12.3139 155.429 12.4848 155.29 12.6969C155.15 12.909 155.074 13.1541 155.068 13.4054C155.058 13.6325 155.123 13.8568 155.253 14.0458C155.383 14.2348 155.572 14.3785 155.793 14.4561C156.492 14.7153 157.221 14.8919 157.964 14.982L162.08 15.5516C163.083 15.6938 164.074 15.9064 165.045 16.1879C165.954 16.4448 166.812 16.8516 167.579 17.3905C168.32 17.9202 168.924 18.6097 169.343 19.4044C169.806 20.3324 170.031 21.3547 170 22.3848C170.048 23.5001 169.808 24.6094 169.302 25.6124C168.796 26.6155 168.041 27.4808 167.103 28.1302C164.729 29.6248 161.923 30.3457 159.096 30.1878C157.513 30.2032 155.931 30.0861 154.369 29.8379C153.168 29.6449 151.982 29.3746 150.819 29.0289C149.981 28.7853 149.17 28.4619 148.398 28.0635C147.953 27.8338 147.523 27.5782 147.109 27.2982L149.682 22.7412Z"></path>
</svg>
