<svg xmlns="http://www.w3.org/2000/svg" width="114.744" height="49.359" viewBox="0 0 114.744 49.359"><defs><style>.a{fill:#201e1f;}.b{fill:none;}.c{fill:#333;}.d{fill:#0084a9;}</style></defs><g transform="translate(-197.672 -221.42)"><path class="a" d="M270.347,230.977a1.208,1.208,0,0,1,1.058-.592h6.872c.822,0,1.29.424,1.058,1.016l-7.381,18.926-5.36-8.678Z" transform="translate(-31.798 -4.136)"/><g transform="translate(197.672 221.42)"><path class="b" d="M243.98,255.2l-.067.009v0a7.974,7.974,0,0,1-.991.061,7.839,7.839,0,0,1-1.275-.112l1.218-1.962h.175l1.2,1.951c-.079.014-.156.039-.236.05Z" transform="translate(-217.961 -236.079)"/><path class="b" d="M237.206,227.528a7.942,7.942,0,0,1,7.312,11.057l-5.785-9.477a1.194,1.194,0,0,0-1-.466h-1.057a1.05,1.05,0,0,0-1,.466l-5.786,9.479a7.948,7.948,0,0,1,7.313-11.06Z" transform="translate(-212.245 -224.238)"/><path class="c" d="M263.065,250.776l0,0c0-.011.011-.022.016-.031C263.073,250.753,263.07,250.765,263.065,250.776Z" transform="translate(-227.841 -234.949)"/><path class="a" d="M198.79,230.021h6.871a1.208,1.208,0,0,1,1.058.592l5.051,14.361H212l1.351-2.213,1.964-3.219,5.786-9.479a1.05,1.05,0,0,1,1-.466h1.057a1.194,1.194,0,0,1,1,.466l5.785,9.477.005.008a8.3,8.3,0,0,1-6,4.709l-1.2-1.951h-.175l-1.218,1.962-1.833,2.955-7.7,12.409a1.285,1.285,0,0,1-1,.466h-.939a1.129,1.129,0,0,1-1.058-.594l-11.1-28.469C197.5,230.445,197.967,230.021,198.79,230.021Z" transform="translate(-197.672 -225.193)"/><path class="a" d="M255.931,254.1l6.8,11.007-2.223,5.705a1.128,1.128,0,0,1-1.058.594h-.939a1.284,1.284,0,0,1-1-.466l-7.667-12.427A11.744,11.744,0,0,0,255.931,254.1Z" transform="translate(-221.743 -236.496)"/><path class="d" d="M234.388,221.42a11.252,11.252,0,0,1,11.239,11.24,11.135,11.135,0,0,1-.908,4.409l.012.005c-.022.047-.046.092-.068.14,0,.01-.011.02-.016.031a11.44,11.44,0,0,1-1.033,1.775,11.744,11.744,0,0,1-6.087,4.413,10.575,10.575,0,0,1-1.744.378,11.482,11.482,0,0,1-1.4.086,11.2,11.2,0,0,1-3.108-.446l1.833-2.955a7.835,7.835,0,0,0,1.275.112,7.967,7.967,0,0,0,.991-.061v0l.067-.009.028,0c.08-.011.157-.036.236-.05a8.3,8.3,0,0,0,6-4.709l-.005-.008a7.947,7.947,0,1,0-14.626,0l-1.964,3.219a11.23,11.23,0,0,1,9.277-17.57Z" transform="translate(-209.427 -221.42)"/></g><g transform="translate(202.037 263.033)"><path class="a" d="M209.658,298.677a3.613,3.613,0,0,1,2.6,1,.2.2,0,0,1,.011.3l-.84.871a.188.188,0,0,1-.269,0,2.2,2.2,0,0,0-1.452-.549,2.2,2.2,0,0,0,.01,4.4,2.276,2.276,0,0,0,1.442-.516.213.213,0,0,1,.28.01l.839.894a.215.215,0,0,1-.01.29,3.694,3.694,0,0,1-2.615,1.043,3.873,3.873,0,1,1,0-7.746Z" transform="translate(-205.775 -298.677)"/><path class="a" d="M224.622,298.677a3.873,3.873,0,1,1-3.862,3.884A3.866,3.866,0,0,1,224.622,298.677Zm0,6.025a2.152,2.152,0,1,0-2.142-2.141A2.156,2.156,0,0,0,224.622,304.7Z" transform="translate(-212.689 -298.677)"/><path class="a" d="M239.475,298.849a.206.206,0,0,1,.193-.172h.172a.236.236,0,0,1,.183.108l2.5,4.647h.022l2.5-4.647a.236.236,0,0,1,.183-.108h.172a.206.206,0,0,1,.194.172l1.216,7.229a.2.2,0,0,1-.2.236h-1.269a.219.219,0,0,1-.2-.172l-.484-3.324h-.022L242.81,306.3a.253.253,0,0,1-.183.119h-.193a.234.234,0,0,1-.183-.119l-1.818-3.485h-.022l-.473,3.324a.21.21,0,0,1-.2.172h-1.269a.2.2,0,0,1-.2-.236Z" transform="translate(-220.761 -298.677)"/><path class="a" d="M258.615,298.849a.206.206,0,0,1,.194-.172h.172a.238.238,0,0,1,.183.108l2.5,4.647h.022l2.5-4.647a.238.238,0,0,1,.183-.108h.172a.206.206,0,0,1,.194.172l1.216,7.229a.2.2,0,0,1-.2.236h-1.27a.219.219,0,0,1-.2-.172l-.484-3.324h-.022l-1.807,3.485a.254.254,0,0,1-.183.119h-.194a.233.233,0,0,1-.183-.119l-1.818-3.485h-.022l-.473,3.324a.21.21,0,0,1-.2.172H257.6a.2.2,0,0,1-.2-.236Z" transform="translate(-229.592 -298.677)"/><path class="a" d="M277.222,299.081a.212.212,0,0,1,.2-.2h1.323a.2.2,0,0,1,.2.2v4.357a1.334,1.334,0,1,0,2.668,0v-4.357a.2.2,0,0,1,.2-.2h1.323a.211.211,0,0,1,.2.2v4.443a3.067,3.067,0,0,1-6.132,0Z" transform="translate(-238.739 -298.769)"/><path class="a" d="M293.4,298.871a.2.2,0,0,1,.2-.194h.269l4.293,4.131h.011v-3.819a.2.2,0,0,1,.2-.2h1.292a.212.212,0,0,1,.2.2v7.241a.2.2,0,0,1-.2.193H299.5a.313.313,0,0,1-.139-.054l-4.25-4.271H295.1v4.013a.2.2,0,0,1-.2.2h-1.28a.211.211,0,0,1-.2-.2Z" transform="translate(-246.205 -298.677)"/><path class="a" d="M310.468,299.081a.211.211,0,0,1,.2-.2h1.291a.212.212,0,0,1,.2.2V306.2a.212.212,0,0,1-.2.2h-1.291a.211.211,0,0,1-.2-.2Z" transform="translate(-254.077 -298.769)"/><path class="a" d="M321.525,298.677a3.613,3.613,0,0,1,2.6,1,.2.2,0,0,1,.011.3l-.84.871a.188.188,0,0,1-.269,0,2.2,2.2,0,0,0-1.452-.549,2.2,2.2,0,0,0,.011,4.4,2.274,2.274,0,0,0,1.441-.516.213.213,0,0,1,.28.01l.839.894a.216.216,0,0,1-.011.29,3.693,3.693,0,0,1-2.614,1.043,3.873,3.873,0,1,1,0-7.746Z" transform="translate(-257.387 -298.677)"/><path class="a" d="M331.886,306.036l3.368-7.24a.219.219,0,0,1,.183-.118h.107a.218.218,0,0,1,.183.118l3.367,7.24a.19.19,0,0,1-.183.28h-1.194c-.193,0-.28-.064-.376-.269l-.387-.85h-2.926l-.387.861a.4.4,0,0,1-.387.258H332.07A.19.19,0,0,1,331.886,306.036Zm4.422-2.3-.817-1.775h-.011l-.807,1.775Z" transform="translate(-263.949 -298.677)"/><path class="a" d="M348.113,300.458h-1.538a.2.2,0,0,1-.2-.2v-1.173a.2.2,0,0,1,.2-.2h4.777a.2.2,0,0,1,.2.2v1.173a.2.2,0,0,1-.2.2h-1.538V306.2a.211.211,0,0,1-.2.2h-1.292a.211.211,0,0,1-.2-.2Z" transform="translate(-270.642 -298.769)"/><path class="a" d="M359.6,299.081a.211.211,0,0,1,.2-.2h1.29a.212.212,0,0,1,.2.2V306.2a.212.212,0,0,1-.2.2H359.8a.211.211,0,0,1-.2-.2Z" transform="translate(-276.744 -298.769)"/><path class="a" d="M370.632,298.677a3.873,3.873,0,1,1-3.862,3.884A3.866,3.866,0,0,1,370.632,298.677Zm0,6.025a2.152,2.152,0,1,0-2.141-2.141A2.156,2.156,0,0,0,370.632,304.7Z" transform="translate(-280.054 -298.677)"/><path class="a" d="M385.131,298.871a.2.2,0,0,1,.2-.194h.269l4.293,4.131h.011v-3.819a.2.2,0,0,1,.2-.2H391.4a.211.211,0,0,1,.2.2v7.241a.2.2,0,0,1-.2.193h-.172a.315.315,0,0,1-.139-.054l-4.249-4.271h-.011v4.013a.2.2,0,0,1-.2.2h-1.28a.211.211,0,0,1-.2-.2Z" transform="translate(-288.525 -298.677)"/><path class="a" d="M401.349,305.293l.505-.893a.278.278,0,0,1,.366-.065,3.208,3.208,0,0,0,1.528.592.675.675,0,0,0,.742-.646c0-.451-.377-.8-1.108-1.086-.925-.366-2.087-1.086-2.087-2.378a2.232,2.232,0,0,1,2.485-2.141,4,4,0,0,1,2.3.807.272.272,0,0,1,.065.344l-.549.828c-.075.118-.269.215-.366.14a3.365,3.365,0,0,0-1.538-.645.624.624,0,0,0-.678.548c0,.4.323.7,1.173,1.044s2.173.989,2.173,2.452a2.363,2.363,0,0,1-2.539,2.227,3.419,3.419,0,0,1-2.421-.828C401.295,305.487,401.262,305.444,401.349,305.293Z" transform="translate(-295.982 -298.677)"/></g><path class="a" d="M364.215,231.024h-1.046a.788.788,0,0,0-.8.753l.041,28.193a.824.824,0,0,0,.8.8H368.2a.794.794,0,0,0,.794-.8V244.346h.043l16.546,16.63a1.251,1.251,0,0,0,.545.209h.671a.788.788,0,0,0,.8-.754v-6.067L380.8,246.99Zm22.58.418h-5.028a.8.8,0,0,0-.8.8v10.97l6.62,7.2V232.239A.824.824,0,0,0,386.795,231.442Z" transform="translate(-75.987 -4.431)"/><path class="a" d="M308.37,231.211a15.03,15.03,0,1,0,15.03,15.072A14.968,14.968,0,0,0,308.37,231.211Zm0,23.38a8.35,8.35,0,1,1,8.35-8.308A8.357,8.357,0,0,1,308.37,254.591Z" transform="translate(-42.158 -4.517)"/></g></svg>